<mxfile host="65bd71144e">
    <diagram id="1azQUTcys5ndEqrDK1OT" name="Page-1">
        <mxGraphModel dx="3149" dy="2525" grid="1" gridSize="10" guides="1" tooltips="1" connect="1" arrows="1" fold="1" page="1" pageScale="1" pageWidth="827" pageHeight="1169" math="0" shadow="0">
            <root>
                <mxCell id="0"/>
                <mxCell id="1" parent="0"/>
                <mxCell id="99" value="" style="verticalLabelPosition=bottom;html=1;verticalAlign=top;strokeWidth=1;align=center;outlineConnect=0;dashed=0;outlineConnect=0;shape=mxgraph.aws3d.workflowService;fillColor=none;strokeColor=#5E5E5E;aspect=fixed;rounded=1;" parent="1" vertex="1">
                    <mxGeometry x="-805.18" y="-270" width="1608.37" height="1310" as="geometry"/>
                </mxCell>
                <mxCell id="110" style="edgeStyle=none;html=1;" parent="1" edge="1">
                    <mxGeometry relative="1" as="geometry">
                        <mxPoint x="-231" y="-877" as="targetPoint"/>
                        <mxPoint x="-231" y="-810" as="sourcePoint"/>
                    </mxGeometry>
                </mxCell>
                <mxCell id="124" style="edgeStyle=none;html=1;fontSize=60;" parent="1" edge="1">
                    <mxGeometry relative="1" as="geometry">
                        <mxPoint x="-230.00357142857138" y="-720" as="sourcePoint"/>
                        <mxPoint x="-90" y="-530" as="targetPoint"/>
                    </mxGeometry>
                </mxCell>
                <mxCell id="109" style="edgeStyle=none;html=1;entryX=0.5;entryY=1;entryDx=0;entryDy=0;" parent="1" edge="1">
                    <mxGeometry relative="1" as="geometry">
                        <mxPoint x="248" y="-880" as="targetPoint"/>
                        <mxPoint x="250" y="-800" as="sourcePoint"/>
                    </mxGeometry>
                </mxCell>
                <mxCell id="123" style="edgeStyle=none;html=1;entryX=0.533;entryY=0.003;entryDx=0;entryDy=0;entryPerimeter=0;fontSize=60;" parent="1" target="120" edge="1">
                    <mxGeometry relative="1" as="geometry">
                        <mxPoint x="199" y="-731.8518609326729" as="sourcePoint"/>
                    </mxGeometry>
                </mxCell>
                <mxCell id="111" value="" style="group;rounded=1;fontSize=13;" parent="1" vertex="1" connectable="0">
                    <mxGeometry x="-213.91999999999996" y="-30" width="94.98076211353316" height="94.46" as="geometry"/>
                </mxCell>
                <mxCell id="87" value="" style="verticalLabelPosition=bottom;html=1;verticalAlign=top;strokeWidth=1;align=center;outlineConnect=0;dashed=0;outlineConnect=0;shape=mxgraph.aws3d.s3;fillColor=#ECECEC;strokeColor=#5E5E5E;aspect=fixed;rounded=1;fontSize=13;" parent="111" vertex="1">
                    <mxGeometry width="91.5" height="94.46" as="geometry"/>
                </mxCell>
                <mxCell id="96" value="S3" style="text;strokeColor=none;align=center;fillColor=none;html=1;verticalAlign=middle;whiteSpace=wrap;rounded=1;rotation=30;fontSize=13;" parent="111" vertex="1">
                    <mxGeometry x="-15" y="45" width="60" height="30" as="geometry"/>
                </mxCell>
                <mxCell id="113" value="" style="group;rounded=1;fontSize=13;" parent="1" vertex="1" connectable="0">
                    <mxGeometry x="-213.92108077346222" y="-170.78999999999996" width="133.92108077346217" height="130.78999999999996" as="geometry"/>
                </mxCell>
                <mxCell id="112" value="" style="group;rounded=1;fontSize=13;" parent="113" vertex="1" connectable="0">
                    <mxGeometry x="30.001080773462206" y="-42.5803810567666" width="103.91999999999996" height="173.37038105676658" as="geometry"/>
                </mxCell>
                <mxCell id="85" value="" style="verticalLabelPosition=bottom;html=1;verticalAlign=top;strokeWidth=1;align=center;outlineConnect=0;dashed=0;outlineConnect=0;shape=mxgraph.aws3d.cloudfront;fillColor=#ECECEC;strokeColor=#5E5E5E;aspect=fixed;rounded=1;fontSize=13;" parent="112" vertex="1">
                    <mxGeometry y="3.3703810567665755" width="103.92" height="170" as="geometry"/>
                </mxCell>
                <mxCell id="108" value="Cloudfront" style="text;strokeColor=none;align=center;fillColor=none;html=1;verticalAlign=middle;whiteSpace=wrap;rounded=1;rotation=30;fontSize=13;" parent="112" vertex="1">
                    <mxGeometry x="23.159999999999968" y="12.99038105676658" width="60" height="30" as="geometry"/>
                </mxCell>
                <mxCell id="114" value="" style="group;rotation=90;rounded=1;fontSize=13;" parent="1" vertex="1" connectable="0">
                    <mxGeometry x="-42.86076211353314" y="-184.62000000000003" width="83.73076211353316" height="90.76" as="geometry"/>
                </mxCell>
                <mxCell id="88" value="" style="verticalLabelPosition=bottom;html=1;verticalAlign=top;strokeWidth=1;align=center;outlineConnect=0;dashed=0;outlineConnect=0;shape=mxgraph.aws3d.lambda;fillColor=#ECECEC;strokeColor=#5E5E5E;aspect=fixed;rounded=1;fontSize=13;" parent="114" vertex="1">
                    <mxGeometry x="7.48076211353316" y="34.62" width="76.25" height="90.76" as="geometry"/>
                </mxCell>
                <mxCell id="95" value="Lambda" style="text;strokeColor=none;align=center;fillColor=none;html=1;verticalAlign=middle;whiteSpace=wrap;rounded=1;rotation=25;fontSize=13;" parent="114" vertex="1">
                    <mxGeometry x="-0.61" y="49.76" width="60" height="24.84" as="geometry"/>
                </mxCell>
                <mxCell id="115" value="" style="group;rounded=1;fontSize=13;" parent="1" vertex="1" connectable="0">
                    <mxGeometry x="-53.39" y="70" width="119.03" height="120" as="geometry"/>
                </mxCell>
                <mxCell id="92" value="" style="verticalLabelPosition=bottom;html=1;verticalAlign=top;strokeWidth=1;align=center;outlineConnect=0;dashed=0;outlineConnect=0;shape=mxgraph.aws3d.application_server;fillColor=#ECECEC;strokeColor=#5E5E5E;aspect=fixed;rounded=1;fontSize=13;" parent="115" vertex="1">
                    <mxGeometry width="119.03" height="120" as="geometry"/>
                </mxCell>
                <mxCell id="97" value="EC2" style="text;strokeColor=none;align=center;fillColor=none;html=1;verticalAlign=middle;whiteSpace=wrap;rounded=1;fontSize=13;" parent="115" vertex="1">
                    <mxGeometry x="20.5" y="9.589999999999975" width="60" height="30" as="geometry"/>
                </mxCell>
                <mxCell id="120" value="&lt;font style=&quot;font-size: 60px;&quot;&gt;Workflow Service&lt;/font&gt;" style="text;strokeColor=none;align=center;fillColor=none;html=1;verticalAlign=middle;whiteSpace=wrap;rounded=1;fontStyle=1;fontSize=60;" parent="1" vertex="1">
                    <mxGeometry x="-396" y="-540" width="790" height="110" as="geometry"/>
                </mxCell>
                <mxCell id="136" value="" style="edgeStyle=none;html=1;fontSize=13;" parent="1" source="94" target="88" edge="1">
                    <mxGeometry relative="1" as="geometry"/>
                </mxCell>
                <mxCell id="94" value="" style="verticalLabelPosition=bottom;html=1;verticalAlign=top;strokeWidth=1;align=center;outlineConnect=0;dashed=0;outlineConnect=0;shape=mxgraph.aws3d.rds;fillColor=#ECECEC;strokeColor=#5E5E5E;aspect=fixed;rounded=1;fontSize=13;" parent="1" vertex="1">
                    <mxGeometry x="-35.37999999999998" y="-40" width="83" height="89.75" as="geometry"/>
                </mxCell>
                <mxCell id="116" value="" style="group;rounded=1;fontSize=13;" parent="1" vertex="1" connectable="0">
                    <mxGeometry x="17.14" y="-48" width="83" height="89.75" as="geometry"/>
                </mxCell>
                <mxCell id="98" value="DB" style="text;strokeColor=none;align=center;fillColor=none;html=1;verticalAlign=middle;whiteSpace=wrap;rounded=1;fontSize=13;" parent="116" vertex="1">
                    <mxGeometry x="-39.27" y="13" width="60" height="30" as="geometry"/>
                </mxCell>
                <mxCell id="127" style="html=1;fontSize=13;targetPerimeterSpacing=4;endSize=4;" parent="1" source="85" target="87" edge="1">
                    <mxGeometry relative="1" as="geometry">
                        <mxPoint x="-52.86" y="-40" as="targetPoint"/>
                    </mxGeometry>
                </mxCell>
                <mxCell id="93" value="" style="verticalLabelPosition=bottom;html=1;verticalAlign=top;strokeWidth=1;align=center;outlineConnect=0;dashed=0;outlineConnect=0;shape=mxgraph.aws3d.email_service;fillColor=#ECECEC;strokeColor=#5E5E5E;aspect=fixed;container=1;rounded=1;fontSize=13;" parent="1" vertex="1">
                    <mxGeometry x="113.81891922653777" y="-160.01" width="73.32" height="93.23" as="geometry"/>
                </mxCell>
                <mxCell id="107" value="Email" style="text;strokeColor=none;align=center;fillColor=none;html=1;verticalAlign=middle;whiteSpace=wrap;rounded=1;rotation=20;fontSize=13;" parent="93" vertex="1">
                    <mxGeometry x="-11.338919226537655" y="44.83999999999999" width="60" height="30" as="geometry"/>
                </mxCell>
                <mxCell id="146" style="edgeStyle=none;html=1;exitX=0.75;exitY=0;exitDx=0;exitDy=0;entryX=1;entryY=0.25;entryDx=0;entryDy=0;fontSize=13;" edge="1" parent="93" source="107" target="107">
                    <mxGeometry relative="1" as="geometry"/>
                </mxCell>
                <mxCell id="137" value="" style="image;html=1;image=img/lib/clip_art/people/Doctor_Man_128x128.png;fontSize=60;fillColor=none;rounded=1;" parent="1" vertex="1">
                    <mxGeometry x="160" y="-1000" width="170" height="120" as="geometry"/>
                </mxCell>
                <mxCell id="138" value="EPR" style="text;strokeColor=none;align=center;fillColor=none;html=1;verticalAlign=middle;whiteSpace=wrap;rounded=0;fontSize=13;" vertex="1" parent="1">
                    <mxGeometry x="179" y="-726" width="60" height="30" as="geometry"/>
                </mxCell>
                <mxCell id="142" value="HTTP RESTFull API" style="text;strokeColor=none;align=center;fillColor=none;html=1;verticalAlign=middle;whiteSpace=wrap;rounded=0;fontSize=13;" vertex="1" parent="1">
                    <mxGeometry x="-31" y="-430" width="60" height="30" as="geometry"/>
                </mxCell>
                <mxCell id="145" value="" style="edgeStyle=none;html=1;fontSize=13;endArrow=none;" edge="1" parent="1" source="120" target="144">
                    <mxGeometry relative="1" as="geometry">
                        <mxPoint x="4.1599999999998545" y="-10" as="targetPoint"/>
                        <mxPoint x="4.1599999999998545" y="-520" as="sourcePoint"/>
                    </mxGeometry>
                </mxCell>
                <mxCell id="144" value="" style="verticalLabelPosition=bottom;html=1;verticalAlign=top;strokeWidth=1;align=center;outlineConnect=0;dashed=0;outlineConnect=0;shape=mxgraph.aws3d.customerGateway;fillColor=#ECECEC;strokeColor=#5E5E5E;aspect=fixed;fontSize=13;" vertex="1" parent="1">
                    <mxGeometry x="-66.05" y="-240" width="116.7" height="102.8" as="geometry"/>
                </mxCell>
                <mxCell id="149" value="API GW" style="text;strokeColor=none;align=center;fillColor=none;html=1;verticalAlign=middle;whiteSpace=wrap;rounded=0;fontSize=13;" vertex="1" parent="1">
                    <mxGeometry x="-56.39" y="-181.62" width="60" height="30" as="geometry"/>
                </mxCell>
                <mxCell id="150" style="edgeStyle=none;html=1;entryX=0.667;entryY=1.064;entryDx=0;entryDy=0;entryPerimeter=0;" edge="1" parent="1">
                    <mxGeometry relative="1" as="geometry">
                        <mxPoint x="-250.00400000000016" y="-709.998" as="targetPoint"/>
                        <mxPoint x="-115.22" y="-528.9918788101022" as="sourcePoint"/>
                    </mxGeometry>
                </mxCell>
                <mxCell id="151" style="edgeStyle=none;html=1;entryX=0.667;entryY=1.064;entryDx=0;entryDy=0;entryPerimeter=0;" edge="1" parent="1">
                    <mxGeometry relative="1" as="geometry">
                        <mxPoint x="187.99599999999987" y="-699.998" as="targetPoint"/>
                        <mxPoint x="28" y="-520" as="sourcePoint"/>
                    </mxGeometry>
                </mxCell>
                <mxCell id="153" style="edgeStyle=none;html=1;fontSize=60;exitX=0.594;exitY=0.992;exitDx=0;exitDy=0;exitPerimeter=0;" edge="1" parent="1" source="137">
                    <mxGeometry relative="1" as="geometry">
                        <mxPoint x="265" y="-870" as="sourcePoint"/>
                        <mxPoint x="265" y="-810" as="targetPoint"/>
                    </mxGeometry>
                </mxCell>
                <mxCell id="154" style="edgeStyle=none;html=1;fontSize=60;exitX=0.443;exitY=0.992;exitDx=0;exitDy=0;exitPerimeter=0;" edge="1" parent="1">
                    <mxGeometry relative="1" as="geometry">
                        <mxPoint x="-255.9699999999998" y="-881.04" as="sourcePoint"/>
                        <mxPoint x="-256" y="-820" as="targetPoint"/>
                    </mxGeometry>
                </mxCell>
                <mxCell id="156" value="" style="image;html=1;image=img/lib/clip_art/telecommunication/iPhone_128x128.png;fontSize=13;" vertex="1" parent="1">
                    <mxGeometry x="-282.06" y="-800" width="80" height="80" as="geometry"/>
                </mxCell>
                <mxCell id="157" value="" style="image;html=1;image=img/lib/clip_art/computers/iMac_128x128.png;fontSize=13;" vertex="1" parent="1">
                    <mxGeometry x="205" y="-804" width="80" height="80" as="geometry"/>
                </mxCell>
                <mxCell id="158" value="" style="image;html=1;image=img/lib/clip_art/people/Doctor_Woman_Black_128x128.png;fontSize=13;" vertex="1" parent="1">
                    <mxGeometry x="-350" y="-1010" width="210" height="130" as="geometry"/>
                </mxCell>
            </root>
        </mxGraphModel>
    </diagram>
</mxfile>